<svg width="30" height="30" viewBox="0 0 30 30" fill="none" xmlns="http://www.w3.org/2000/svg">
<path d="M15 1C7.26875 1 1 7.26875 1 15C1 22.7312 7.26875 29 15 29C22.7312 29 29 22.7312 29 15C29 7.26875 22.7312 1 15 1ZM20.5156 19.3031L19.6219 20.5219C19.6024 20.5484 19.5779 20.5708 19.5498 20.5879C19.5217 20.6049 19.4904 20.6162 19.4579 20.6212C19.4254 20.6261 19.3922 20.6246 19.3603 20.6167C19.3284 20.6087 19.2983 20.5946 19.2719 20.575L14.1031 16.8062C14.0709 16.7831 14.0448 16.7526 14.0268 16.7173C14.0089 16.6819 13.9997 16.6428 14 16.6031V8C14 7.8625 14.1125 7.75 14.25 7.75H15.7531C15.8906 7.75 16.0031 7.8625 16.0031 8V15.7344L20.4594 18.9562C20.5719 19.0344 20.5969 19.1906 20.5156 19.3031Z" fill="#FADAA3"/>
</svg>
