<svg width="30" height="30" viewBox="0 0 30 30" fill="none" xmlns="http://www.w3.org/2000/svg">
<path d="M5.67755 8.01893H3.33789V24.3966C3.33789 25.6834 4.39074 26.7362 5.67755 26.7362H22.0552V24.3966H5.67755V8.01893ZM24.3949 3.3396H10.3569C9.07007 3.3396 8.01722 4.39245 8.01722 5.67926V19.7172C8.01722 21.0041 9.07007 22.0569 10.3569 22.0569H24.3949C25.6817 22.0569 26.7345 21.0041 26.7345 19.7172V5.67926C26.7345 4.39245 25.6817 3.3396 24.3949 3.3396ZM24.3949 19.7172H10.3569V5.67926H24.3949V19.7172ZM12.6965 11.5284H22.0552V13.8681H12.6965V11.5284ZM12.6965 15.0379H17.3759V17.3776H12.6965V15.0379ZM12.6965 8.01893H22.0552V10.3586H12.6965V8.01893Z" fill="white"/>
</svg>
