<svg width="30" height="30" viewBox="0 0 30 30" fill="none" xmlns="http://www.w3.org/2000/svg">
<path d="M25.7812 3.28125C25.6699 3.28125 25.5557 3.30176 25.4414 3.34863L8.55469 10.1338H3.75C3.49219 10.1338 3.28125 10.3506 3.28125 10.6201V19.3799C3.28125 19.6494 3.49219 19.8662 3.75 19.8662H6.72656C6.61816 20.2061 6.5625 20.5664 6.5625 20.9326C6.5625 22.8633 8.13867 24.4336 10.0781 24.4336C11.7012 24.4336 13.0693 23.332 13.4736 21.8437L25.4443 26.6543C25.5586 26.6982 25.6728 26.7217 25.7842 26.7217C26.2793 26.7217 26.7217 26.3057 26.7217 25.749V4.25391C26.7187 3.69727 26.2793 3.28125 25.7812 3.28125ZM10.0781 22.333C9.30176 22.333 8.67187 21.7061 8.67187 20.9326C8.67187 20.6045 8.78613 20.291 8.99414 20.042L11.4814 21.041C11.4229 21.7617 10.8164 22.333 10.0781 22.333V22.333Z" fill="#FADAA3"/>
</svg>
