<svg width="30" height="30" viewBox="0 0 30 30" fill="none" xmlns="http://www.w3.org/2000/svg">
<path d="M27.8438 7.86155C27.4249 6.89166 26.8209 6.01276 26.0656 5.27405C25.3098 4.53313 24.4186 3.94433 23.4406 3.53967C22.4265 3.1184 21.3388 2.90277 20.2406 2.9053C18.7 2.9053 17.1969 3.32717 15.8906 4.12405C15.5781 4.31467 15.2812 4.52405 15 4.75217C14.7188 4.52405 14.4219 4.31467 14.1094 4.12405C12.8031 3.32717 11.3 2.9053 9.75937 2.9053C8.65 2.9053 7.575 3.1178 6.55937 3.53967C5.57812 3.94592 4.69375 4.5303 3.93437 5.27405C3.17811 6.01193 2.57399 6.89104 2.15625 7.86155C1.72188 8.87092 1.5 9.9428 1.5 11.0459C1.5 12.0865 1.7125 13.1709 2.13438 14.274C2.4875 15.1959 2.99375 16.1522 3.64062 17.1178C4.66562 18.6459 6.075 20.2397 7.825 21.8553C10.725 24.5334 13.5969 26.3834 13.7188 26.4584L14.4594 26.9334C14.7875 27.1428 15.2094 27.1428 15.5375 26.9334L16.2781 26.4584C16.4 26.3803 19.2687 24.5334 22.1719 21.8553C23.9219 20.2397 25.3313 18.6459 26.3563 17.1178C27.0031 16.1522 27.5125 15.1959 27.8625 14.274C28.2844 13.1709 28.4969 12.0865 28.4969 11.0459C28.5 9.9428 28.2781 8.87092 27.8438 7.86155V7.86155Z" fill="#FADAA3"/>
</svg>
