<svg width="30" height="30" viewBox="0 0 30 30" fill="none" xmlns="http://www.w3.org/2000/svg">
<path d="M15.9734 18.5491L13.0009 15.6117L13.036 15.5766C15.0723 13.3062 16.5234 10.6965 17.3777 7.93458H20.8067V5.594H12.6147V3.25342H10.2741V5.594H2.08203V7.92288H15.1542C14.3701 10.1815 13.1296 12.3232 11.4444 14.1956C10.356 12.9902 9.45487 11.6678 8.74099 10.2752H6.40041C7.25472 12.1827 8.42501 13.985 9.88788 15.6117L3.93109 21.4866L5.59291 23.1484L11.4444 17.2969L15.084 20.9365L15.9734 18.5491ZM22.5621 12.6158H20.2216L14.9552 26.6593H17.2958L18.6065 23.1484H24.1654L25.4879 26.6593H27.8284L22.5621 12.6158ZM19.496 20.8078L21.3918 15.7404L23.2877 20.8078H19.496Z" fill="white"/>
</svg>
