<svg width="30" height="30" viewBox="0 0 30 30" fill="none" xmlns="http://www.w3.org/2000/svg">
<path d="M27.25 8.25H25.1875V5.25C25.1875 5.1125 25.075 5 24.9375 5H23.3125C23.175 5 23.0625 5.1125 23.0625 5.25V8.25H21C20.8625 8.25 20.75 8.3625 20.75 8.5V21.5C20.75 21.6375 20.8625 21.75 21 21.75H23.0625V24.75C23.0625 24.8875 23.175 25 23.3125 25H24.9375C25.075 25 25.1875 24.8875 25.1875 24.75V21.75H27.25C27.3875 21.75 27.5 21.6375 27.5 21.5V8.5C27.5 8.3625 27.3875 8.25 27.25 8.25ZM9 6H6.9375V4.25C6.9375 4.1125 6.825 4 6.6875 4H5.0625C4.925 4 4.8125 4.1125 4.8125 4.25V6H2.75C2.6125 6 2.5 6.1125 2.5 6.25V23.75C2.5 23.8875 2.6125 24 2.75 24H4.8125V25.75C4.8125 25.8875 4.925 26 5.0625 26H6.6875C6.825 26 6.9375 25.8875 6.9375 25.75V24H9C9.1375 24 9.25 23.8875 9.25 23.75V6.25C9.25 6.1125 9.1375 6 9 6ZM18.125 11.625H16.0625V6.25C16.0625 6.1125 15.95 6 15.8125 6H14.1875C14.05 6 13.9375 6.1125 13.9375 6.25V11.625H11.875C11.7375 11.625 11.625 11.7375 11.625 11.875V18.125C11.625 18.2625 11.7375 18.375 11.875 18.375H13.9375V23.75C13.9375 23.8875 14.05 24 14.1875 24H15.8125C15.95 24 16.0625 23.8875 16.0625 23.75V18.375H18.125C18.2625 18.375 18.375 18.2625 18.375 18.125V11.875C18.375 11.7375 18.2625 11.625 18.125 11.625Z" fill="#FADAA3"/>
</svg>
