<svg width="30" height="30" viewBox="0 0 30 30" fill="none" xmlns="http://www.w3.org/2000/svg">
<path d="M20.9656 12.295L13.1192 20.1414L8.41361 15.4358L9.97844 13.871L13.1192 17.0117L19.4007 10.7302L20.9656 12.295ZM5.80556 15.0363C5.80556 12.4504 6.93756 10.1309 8.71326 8.51058L11.3546 11.1519V4.49307H4.69575L7.13733 6.93465C4.9621 8.9545 3.58594 11.8289 3.58594 15.0363C3.58594 20.7962 7.96969 25.524 13.5742 26.0789V23.8371C9.20158 23.2933 5.80556 19.5532 5.80556 15.0363ZM25.7821 15.0363C25.7821 9.27635 21.3984 4.54856 15.7938 3.99365V6.23547C20.1665 6.77928 23.5625 10.5193 23.5625 15.0363C23.5625 17.6221 22.4305 19.9416 20.6548 21.5619L18.0135 18.9206V25.5795H24.6723L22.2307 23.1379C24.406 21.118 25.7821 18.2436 25.7821 15.0363Z" fill="white"/>
</svg>
