<svg width="30" height="30" viewBox="0 0 30 30" fill="none" xmlns="http://www.w3.org/2000/svg">
<path d="M14.5241 7.60229C13.3124 7.60229 7.61008 8.5111 7.41406 14.5163C10.479 13.8035 12.8669 11.3622 13.4727 8.26162C14.4172 10.3109 16.9654 13.2511 21.3668 12.8947C20.565 9.84757 17.8207 7.60229 14.5241 7.60229Z" fill="white"/>
<path d="M10.0748 17.4034C10.8129 17.4034 11.4112 16.8051 11.4112 16.0669C11.4112 15.3288 10.8129 14.7305 10.0748 14.7305C9.33664 14.7305 8.73828 15.3288 8.73828 16.0669C8.73828 16.8051 9.33664 17.4034 10.0748 17.4034Z" fill="white"/>
<path d="M18.981 17.4034C19.7191 17.4034 20.3175 16.8051 20.3175 16.0669C20.3175 15.3288 19.7191 14.7305 18.981 14.7305C18.2429 14.7305 17.6445 15.3288 17.6445 16.0669C17.6445 16.8051 18.2429 17.4034 18.981 17.4034Z" fill="white"/>
<path d="M25.2183 14.7308C25.2183 8.83255 20.4248 4.03906 14.5265 4.03906C8.62818 4.03906 3.8347 8.83255 3.8347 14.7308C2.85462 14.7308 2.05273 15.5327 2.05273 16.5128V20.0767C2.05273 21.0568 2.85462 21.8587 3.8347 21.8587H5.61666V14.7308C5.61666 9.81263 9.60826 5.82103 14.5265 5.82103C19.4447 5.82103 23.4363 9.81263 23.4363 14.7308V23.6407H12.7445V25.4226H23.4363C24.4164 25.4226 25.2183 24.6208 25.2183 23.6407V21.8587C26.1984 21.8587 27.0002 21.0568 27.0002 20.0767V16.5128C27.0002 15.5327 26.1984 14.7308 25.2183 14.7308Z" fill="white"/>
</svg>
