<svg width="1441" height="797" viewBox="0 0 1441 797" fill="none" xmlns="http://www.w3.org/2000/svg">
<g clip-path="url(#clip0_231_2178)">
<path fill-rule="evenodd" clip-rule="evenodd" d="M1348 1528C1721.9 1528 2025 1224.45 2025 850C2025 475.55 1721.9 172 1348 172C974.105 172 671 475.55 671 850C671 1224.45 974.105 1528 1348 1528ZM1348 1529C1722.45 1529 2026 1225 2026 850C2026 474.999 1722.45 171 1348 171C973.551 171 670 474.999 670 850C670 1225 973.551 1529 1348 1529Z" fill="black" fill-opacity="0.2"/>
<path fill-rule="evenodd" clip-rule="evenodd" d="M719 1522C1120.03 1522 1445 1220.17 1445 848C1445 475.829 1120.03 174 719 174C317.97 174 -7 475.829 -7 848C-7 1220.17 317.97 1522 719 1522ZM719 1523C1120.51 1523 1446 1220.79 1446 848C1446 475.208 1120.51 173 719 173C317.489 173 -8 475.208 -8 848C-8 1220.79 317.489 1523 719 1523Z" fill="black" fill-opacity="0.2"/>
<path fill-rule="evenodd" clip-rule="evenodd" d="M93 1528C466.895 1528 770 1224.45 770 850C770 475.55 466.895 172 93 172C-280.895 172 -584 475.55 -584 850C-584 1224.45 -280.895 1528 93 1528ZM93 1529C467.449 1529 771 1225 771 850C771 474.999 467.449 171 93 171C-281.449 171 -585 474.999 -585 850C-585 1225 -281.449 1529 93 1529Z" fill="black" fill-opacity="0.2"/>
<circle cx="47.5" cy="591.5" r="4.5" fill="#1C1C1C"/>
<circle cx="720.5" cy="594.5" r="4.5" fill="#1C1C1C"/>
<circle cx="1392.5" cy="594.5" r="4.5" fill="#1C1C1C"/>
<circle cx="44.5" cy="172.5" r="4.5" fill="#1C1C1C"/>
<circle cx="720.5" cy="173.5" r="4.5" fill="#1C1C1C"/>
<circle cx="1393.5" cy="173.5" r="4.5" fill="#1C1C1C"/>
</g>
<defs>
<clipPath id="clip0_231_2178">
<rect width="1441" height="797" fill="white"/>
</clipPath>
</defs>
</svg>
